:SAMPLES-PER-SECOND 30
:FULLY-SPECIFIED
:DEGREES
176
root  -3.72745 24.0968 9.48728 16.4714 -19.104 4.33799
RightUpLeg  -58.7408 -3.1107 -42.4655
RightLeg  56.071 3.13806 3.99663
RightFoot  -4.35939 0.118454 3.48954
RightToes  -55.8641 -0.355927 -0.386164
Spine  25.8426 11.9942 -1.2233
Spine1  43.1096 25.5206 1.42872
HEad  4.36119 -6.83781 -4.46539
LeftShoulder1  0 -2.42657e-020 -4.95415e-022
LeftArm  -8.86666 -33.4596 -112.363
LeftForeArm  12.8944 -38.2733 -7.99322
LeftHand  -0.0882877 -6.42103 1.2052
RightShoulder  0 2.42657e-020 1.07489e-018
RightArm  -34.6706 40.4923 20.4326
RightForeArm  21.7251 23.9794 4.49391
RightHand  2.69093 24.1594 12.8992
LeftUpLeg  -61.8777 0.284346 18.9114
LeftLeg  77.3206 -2.73923 -9.26902
LeftFoot  -18.8372 0.124851 0.75263
LeftToes  -57.1248 2.01279e-006 2.21547e-008
177
root  -2.41646 25.0035 8.80516 14.9644 -18.6193 6.20332
RightUpLeg  -53.833 -6.76147 -39.7501
RightLeg  60.2699 4.08307 6.07329
RightFoot  -4.37744 0.10273 3.06547
RightToes  -56.7181 -0.363828 -0.388881
Spine  25.3812 9.17765 -0.359766
Spine1  41.7113 20.8182 1.46181
HEad  6.75818 -5.30806 -3.79866
LeftShoulder1  0 -2.42657e-020 -4.95415e-022
LeftArm  -11.1833 -32.1609 -108.143
LeftForeArm  14.1709 -38.9695 -8.19797
LeftHand  -0.0848315 -5.88567 1.28162
RightShoulder  0 2.42657e-020 1.07489e-018
RightArm  -32.1232 35.8087 22.6159
RightForeArm  11.8395 27.5764 5.27687
RightHand  3.10142 23.2304 15.38
LeftUpLeg  -61.8214 0.704015 14.0173
LeftLeg  73.7323 -3.92129 -10.6885
LeftFoot  -13.9108 0.08055 0.660258
LeftToes  -56.8592 2.01279e-006 2.21547e-008
178
root  -1.22723 26.0808 7.94771 14.4437 -12.0373 9.23995
RightUpLeg  -44.2319 -13.503 -38.5149
RightLeg  64.0754 2.83896 4.86895
RightFoot  -7.5718 0.145164 2.57123
RightToes  -61.3597 -0.40742 -0.401568
Spine  23.9594 4.28522 1.31596
Spine1  38.8158 11.7723 3.09233
HEad  9.00995 -5.91453 -3.67412
LeftShoulder1  0 -2.42657e-020 -4.95415e-022
LeftArm  -13.4115 -30.3443 -105.33
LeftForeArm  12.7296 -37.9941 -7.91246
LeftHand  -0.181492 -8.81732 1.98532
RightShoulder  0 2.42657e-020 1.07489e-018
RightArm  -28.8727 29.5543 27.1168
RightForeArm  2.46197 30.5328 5.95416
RightHand  3.42268 22.0395 17.82
LeftUpLeg  -63.6555 0.131226 7.47528
LeftLeg  68.3381 -8.20445 -16.7815
LeftFoot  -5.2633 -0.00241405 -0.0525302
LeftToes  -57.824 2.01279e-006 2.21547e-008
179
root  -0.154743 27.0232 6.61276 17.5397 -2.24521 9.71463
RightUpLeg  -35.8107 -24.2296 -34.8432
RightLeg  65.7984 1.78228 3.23701
RightFoot  -9.19019 0.149947 2.24322
RightToes  -57.327 -0.369486 -0.390746
Spine  20.6841 -0.935935 4.92934
Spine1  33.7392 1.03344 7.80025
HEad  8.02744 -6.16494 -6.7568
LeftShoulder1  0 -2.42657e-020 -4.95415e-022
LeftArm  -15.2677 -27.4154 -105.395
LeftForeArm  12.0368 -37.7671 -7.84687
LeftHand  -0.305455 -9.3528 3.36537
RightShoulder  0 2.42657e-020 1.07489e-018
RightArm  -27.536 23.3356 31.2738
RightForeArm  -10.7356 33.9913 6.79003
RightHand  3.84592 20.7711 21.1385
LeftUpLeg  -68.1712 -1.15149 3.68658
LeftLeg  62.1389 -13.9167 -21.4066
LeftFoot  2.79868 0.07 -2.86499
LeftToes  -66.2124 2.01279e-006 2.21547e-008
180
root  0.269493 27.6001 5.20536 20.194 1.06057 8.46588
RightUpLeg  -33.6736 -24.8134 -28.5239
RightLeg  67.843 1.22865 2.38941
RightFoot  -10.9245 0.141199 1.85419
RightToes  -57.9365 -0.375169 -0.392553
Spine  18.4474 -3.70027 6.7518
Spine1  30.6359 -4.94599 9.80147
HEad  5.79153 -2.33101 -11.4561
LeftShoulder1  0 -2.42657e-020 -4.95415e-022
LeftArm  -19.9131 -24.439 -103.681
LeftForeArm  10.924 -40.1785 -8.55928
LeftHand  -0.0153871 -5.65338 -0.0583929
RightShoulder  0 2.42657e-020 1.07489e-018
RightArm  -27.0783 22.7547 39.6363
RightForeArm  -16.7715 38.0879 7.89023
RightHand  3.32993 19.7601 19.3257
LeftUpLeg  -69.3077 -0.894133 7.96483
LeftLeg  52.7061 -9.72176 -11.0102
LeftFoot  2.36559 0.0422043 -2.04392
LeftToes  -53.5171 2.01279e-006 2.21547e-008
181
root  0.359881 27.8511 3.94636 23.1321 -3.93942 5.47611
RightUpLeg  -36.827 -15.4844 -21.4064
RightLeg  67.8089 -0.676049 -1.53901
RightFoot  -11.532 0.183963 2.19937
RightToes  -63.614 -0.428928 -0.406446
Spine  16.7292 -3.87216 6.33531
Spine1  28.4529 -5.57458 7.88852
HEad  4.74052 5.32142 -15.7537
LeftShoulder1  0 -2.42657e-020 -4.95415e-022
LeftArm  -27.8301 -19.8503 -99.1248
LeftForeArm  8.01013 -43.1608 -9.5145
LeftHand  -0.00733104 -4.77361 -0.194348
RightShoulder  0 2.42657e-020 1.07489e-018
RightArm  -23.318 24.0534 53.2551
RightForeArm  -16.8352 42.5892 9.27424
RightHand  3.15425 19.445 18.6341
LeftUpLeg  -68.3462 5.84624 15.4398
LeftLeg  49.9135 -3.08448 -3.2225
LeftFoot  -2.33137 -0.0246094 -1.2094
LeftToes  -37.421 2.01279e-006 2.21547e-008
182
root  1.137 27.8379 3.12576 24.0315 -14.3668 6.86849
RightUpLeg  -38.5645 -6.35723 -25.5082
RightLeg  62.8264 -2.06128 -3.54903
RightFoot  -15.766 0.321875 2.70205
RightToes  -62.8762 -0.421868 -0.404943
Spine  15.397 -3.77619 2.72175
Spine1  26.5066 -5.45319 1.57822
HEad  2.56986 12.737 -20.0149
LeftShoulder1  0 -2.42657e-020 -4.95415e-022
LeftArm  -37.3209 -14.7613 -92.2204
LeftForeArm  5.80293 -43.8774 -9.75608
LeftHand  -0.00475421 -3.77781 -0.226205
RightShoulder  0 2.42657e-020 1.07489e-018
RightArm  -14.3838 22.8912 67.7644
RightForeArm  -12.1911 48.2289 11.3486
RightHand  2.42154 19.1629 14.6479
LeftUpLeg  -62.5388 13.2703 16.716
LeftLeg  51.9674 -2.30698 -2.59348
LeftFoot  -2.93245 -0.0265407 -1.03689
LeftToes  -35.0512 2.01279e-006 2.21547e-008
183
root  2.16339 27.4138 2.75254 22.5688 -24.0142 9.45274
RightUpLeg  -40.2621 -0.490168 -33.3903
RightLeg  56.513 -0.559051 -0.807677
RightFoot  -22.5883 0.291914 1.83919
RightToes  -58.4175 -0.379668 -0.393936
Spine  14.8786 -4.00147 -0.645401
Spine1  25.6524 -6.22332 -3.70247
HEad  0.188268 18.519 -23.7263
LeftShoulder1  0 -2.42657e-020 -4.95415e-022
LeftArm  -43.3954 -10.6827 -85.1238
LeftForeArm  1.19923 -42.2966 -9.21679
LeftHand  -0.00704781 -3.33096 -0.127824
RightShoulder  0 2.42657e-020 1.07489e-018
RightArm  -9.1817 20.1381 79.4355
RightForeArm  6.26087 52.6936 13.3989
RightHand  1.75468 21.3052 9.6817
LeftUpLeg  -55.1766 18.9949 16.4133
LeftLeg  55.8271 -4.48927 -5.75985
LeftFoot  -0.258568 -0.00269806 -1.19567
LeftToes  -35.175 2.01279e-006 2.21547e-008
184
root  2.85763 26.7078 2.11378 24.1027 -28.9363 7.06089
RightUpLeg  -45.4823 2.05183 -34.5092
RightLeg  56.6667 0.856404 1.06442
RightFoot  -24.8461 0.116652 0.907117
RightToes  -58.0934 -0.376635 -0.392527
Spine  14.5923 -4.09476 -0.845912
Spine1  25.3986 -7.26248 -3.50129
HEad  -2.76295 21.8148 -27.0863
LeftShoulder1  0 -2.42657e-020 -4.95415e-022
LeftArm  -46.342 -9.03675 -81.3556
LeftForeArm  -1.88163 -40.3794 -8.60244
LeftHand  0.0118617 -1.70758 -1.17064
RightShoulder  0 2.42657e-020 1.07489e-018
RightArm  -6.31009 18.0969 85.4646
RightForeArm  11.2871 57.0366 15.8215
RightHand  0.766543 20.8467 4.53661
LeftUpLeg  -51.5918 23.6227 21.0125
LeftLeg  58.8599 -3.73705 -5.36312
LeftFoot  1.2031 0.015944 -1.51848
LeftToes  -32.6726 2.01279e-006 2.21547e-008
185
root  3.60475 25.8209 1.4328 23.9924 -29.4142 5.454
RightUpLeg  -48.7943 -0.0559612 -34.0893
RightLeg  60.5601 2.15655 3.21031
RightFoot  -25.6397 -0.0841969 0.00754875
RightToes  -59.5898 -0.390678 -0.395233
Spine  15.3461 -4.68013 -0.239035
Spine1  26.9139 -8.71001 -2.81539
HEad  -3.68323 24.5637 -28.8972
LeftShoulder1  0 -2.42657e-020 -4.95415e-022
LeftArm  -47.548 -9.45489 -79.0199
LeftForeArm  -2.38375 -39.8417 -8.43723
LeftHand  0.00798894 -0.40257 -2.69014
RightShoulder  0 2.42657e-020 1.07489e-018
RightArm  -4.12793 18.4254 88.799
RightForeArm  12.9699 60.1755 17.9764
RightHand  0.39559 21.0011 2.50481
LeftUpLeg  -50.075 23.7249 25.4823
LeftLeg  59.7681 -1.36906 -2.04571
LeftFoot  0.694815 0.00934915 -1.5418
LeftToes  -30.5911 2.01279e-006 2.21547e-008
186
root  4.43487 24.859 0.743474 23.1169 -29.1397 4.53289
RightUpLeg  -50.8126 -1.55065 -34.6304
RightLeg  63.8987 2.82227 4.80588
RightFoot  -26.8297 -0.251683 -0.677684
RightToes  -59.8921 -0.393528 -0.397939
Spine  16.1138 -4.71293 -0.0796037
Spine1  28.4085 -9.05584 -2.30088
HEad  -2.68556 25.9553 -29.2528
LeftShoulder1  0 -2.42657e-020 -4.95415e-022
LeftArm  -47.6812 -10.398 -77.0851
LeftForeArm  -3.92022 -40.9355 -8.77107
LeftHand  0.0126414 -0.432201 -3.78154
RightShoulder  0 2.42657e-020 1.07489e-018
RightArm  -2.29433 19.3949 91.9439
RightForeArm  24.3515 63.846 21.1539
RightHand  -0.0357488 21.1945 0.178991
LeftUpLeg  -49.989 24.5988 27.8097
LeftLeg  57.7798 -0.111809 -0.164168
LeftFoot  0.248581 0.00338578 -1.56072
LeftToes  -27.4824 2.01279e-006 2.21547e-008
187
root  5.39048 23.9322 0.27829 22.3273 -28.6466 3.86745
RightUpLeg  -52.2771 -3.11077 -35.7201
RightLeg  66.6518 2.91043 5.55063
RightFoot  -27.0981 -0.273268 -0.756401
RightToes  -60.4232 -0.398544 -0.399508
Spine  16.9958 -4.05023 -0.0890325
Spine1  29.9267 -7.82229 -2.04009
HEad  -2.05956 25.8252 -28.8483
LeftShoulder1  0 -2.42657e-020 -4.95415e-022
LeftArm  -47.9514 -11.8506 -76.5064
LeftForeArm  -5.72784 -44.321 -9.88788
LeftHand  0.025451 -1.64806 -2.14841
RightShoulder  0 2.42657e-020 1.07489e-018
RightArm  2.07333 21.8643 92.4329
RightForeArm  40.1042 66.6146 24.2157
RightHand  -1.65218 20.9217 -8.56354
LeftUpLeg  -51.1446 25.3211 28.5216
LeftLeg  54.4728 -1.53551 -1.88987
LeftFoot  5.10814 0.079263 -1.77681
LeftToes  -37.5918 2.01279e-006 2.21547e-008
188
root  6.5442 22.8796 -0.0941918 22.0638 -27.2069 3.56244
RightUpLeg  -53.292 -6.1713 -37.3387
RightLeg  68.9304 2.99141 6.30373
RightFoot  -27.0567 -0.243109 -0.632863
RightToes  -61.2381 -0.406265 -0.401234
Spine  18.0763 -2.20667 -0.0510162
Spine1  31.5965 -3.96231 -1.78107
HEad  -0.69391 22.8329 -26.7061
LeftShoulder1  0 -2.42657e-020 -4.95415e-022
LeftArm  -46.7704 -16.9486 -77.0769
LeftForeArm  -4.02221 -46.8046 -10.8029
LeftHand  0.0145352 -0.876909 -2.2873
RightShoulder  0 2.42657e-020 1.07489e-018
RightArm  4.08447 28.4009 92.1868
RightForeArm  56.6457 59.5945 17.5234
RightHand  -4.94618 23.0006 -23.6061
LeftUpLeg  -55.4303 23.583 29.8499
LeftLeg  58.4708 -2.84893 -4.03859
LeftFoot  4.72128 0.0866381 -2.10141
LeftToes  -52.4492 2.01279e-006 2.21547e-008
189
root  7.72424 21.5709 -0.265079 21.2417 -25.2528 3.66199
RightUpLeg  -53.1079 -8.13539 -40.2075
RightLeg  71.5098 2.68734 6.37798
RightFoot  -28.2289 -0.0412675 0.213436
RightToes  -61.6405 -0.410088 -0.402649
Spine  20.198 1.02067 -0.01218
Spine1  34.6413 4.07242 -3.79937
HEad  2.55189 19.0061 -22.9239
LeftShoulder1  0 -2.42657e-020 -4.95415e-022
LeftArm  -42.0811 -25.5464 -78.2485
LeftForeArm  -2.91538 -47.9834 -11.2691
LeftHand  0.00853021 -1.51865 -1.01821
RightShoulder  0 2.42657e-020 1.07489e-018
RightArm  -2.31208 38.8167 91.5688
RightForeArm  70.588 43.2437 9.4741
RightHand  -5.97061 22.8317 -28.6001
LeftUpLeg  -61.9678 24.3247 29.0625
LeftLeg  66.5609 -4.04509 -7.85527
LeftFoot  0.390426 0.0073613 -2.16034
LeftToes  -54.8611 2.01279e-006 2.21547e-008
190
root  8.83835 20.473 -0.191667 20.4149 -21.9083 3.868
RightUpLeg  -50.6101 -9.73847 -43.124
RightLeg  72.8562 2.30803 5.83864
RightFoot  -29.157 0.232602 1.27191
RightToes  -62.1104 -0.414561 -0.403286
Spine  22.0402 3.05177 0.383766
Spine1  37.2521 9.83557 -4.91248
HEad  6.07751 15.3755 -18.6546
LeftShoulder1  0 -2.42657e-020 -4.95415e-022
LeftArm  -36.9486 -32.2718 -80.1266
LeftForeArm  1.02816 -48.4204 -11.4556
LeftHand  0.00879964 -2.57073 -0.764213
RightShoulder  0 2.42657e-020 1.07489e-018
RightArm  -15.0092 48.6267 86.1901
RightForeArm  75.7294 26.3187 4.90898
RightHand  -5.8609 21.9463 -29.2167
LeftUpLeg  -69.5068 25.6094 26.4624
LeftLeg  74.0745 -4.68577 -12.9348
LeftFoot  -2.1138 -0.0373972 -2.02691
LeftToes  -55.4044 2.01279e-006 2.21547e-008
